<svg xmlns="http://www.w3.org/2000/svg" viewBox="0 0 450.48 204.98"><defs><style>.cls-1{fill:#ed3334;}.cls-2{fill:#f2ece2;}</style></defs><title>Logo</title><g id="Layer_2" data-name="Layer 2"><g id="Layer_1-2" data-name="Layer 1"><path class="cls-1" d="M209.91,12.36v6.48l-6.74.82V38.14l-6.62.82V20.48l-6.81.83V14.84Z"/><path class="cls-1" d="M231.42,18.51V9.72L238,8.91v25l-6.62.81V25.14l-7.41.91v9.53l-6.62.82V11.45l6.62-.82v8.79Z"/><path class="cls-1" d="M264,5.72V12l-10.7,1.31v3.48l10.59-1.3v5.8l-10.59,1.3v3.63L264,24.88v5.79l-17,2.09V7.81Z"/><path class="cls-2" d="M205.37,114.6q5.44,1,7.37,4.85c1.28,2.56,1.49,4.48.65,5.74s-4.74,4.62-11.67,10.1a22.61,22.61,0,0,0-8.73-8.47Zm-8.88,36.65-1-1.61,14.67-11.95a10.39,10.39,0,0,1,3.38,6.86q.15,3.6-.19,15.34t.44,16.41c.51,3.12,1.9,4.49,4.17,4.13l-.06,1.62-12.32,13q-5.07-2.42-5.51-7t-.12-24Q201.76,147.64,196.49,151.25Z"/><path class="cls-2" d="M267.63,135q5.44,2.52,6.13,10.79l-.06,21.93q1.37,6.63,6.38,5l.74,1.39-11,13.3q-8.61-.56-10.09-8.92a43.42,43.42,0,0,1-8.29,8.39,23,23,0,0,1-10.16,4.09q-5.94,1-12-3.6A13.18,13.18,0,0,1,223.93,175l15.41-19.22,20-2.77q1.43-15.89-10-14.21t-5.29,10.33l-13.81,9.75q-5.56-9.84,4.09-17.4t18.76-8.31Q262.18,132.43,267.63,135Zm-31.07,31-2.29,2.45q6.55,10.28,14.67,9.62t10.34-3.78V163.12Z"/><path class="cls-2" d="M345.48,123.44c3,1.16,4.86,3.1,5.47,5.83l-9.22,9.92-.8-.83q2-2.91-4-5.11t-10.36-1q-4.37,1.19-2.67,4.47t12.38,5q10.68,1.66,13.93,5a13.82,13.82,0,0,1,3.81,8.26,17.62,17.62,0,0,1-2.17,10.17,29.62,29.62,0,0,1-8.54,9.78,21.3,21.3,0,0,1-11.64,4.86,32.24,32.24,0,0,1-11.39-1.29,20.35,20.35,0,0,1-9.19-5.5q-3.62-3.83-2.51-7.18l9.6-9.47,1.42.69c-1.69,2-1.54,3.86.47,5.64a23.62,23.62,0,0,0,7.24,4.31,25.71,25.71,0,0,0,8.82,1.76q4.57.12,6.84-1.05a3.34,3.34,0,0,0,2-3.62c-.18-1.63-1.32-3.26-3.4-4.9s-6.31-2.74-12.66-3.28-10.91-1.88-13.65-4-3.62-5-2.63-8.56a21.22,21.22,0,0,1,4.36-8.58,48.84,48.84,0,0,1,7-6.34,31.2,31.2,0,0,1,10.53-4.88Q340.92,121.72,345.48,123.44Z"/><path class="cls-2" d="M179.23,142.86q-5.68,2.8-12.13,11.7.56-7.68-4.21-10.31l-15.16,12.94,1.42,1.87c3-2.24,4.42-.5,4.09,5.19q-.63,26.88.18,30.9t6,6.53l13.12-13V187.2q-4.16,1.44-5.26-4-1-4.75-.58-18.57L160,166.25l7.59-6.45a19.55,19.55,0,0,1,1.54-1.31l0,0h0c4.32-3.25,8.18-2.67,11.58,1.79L192,148.53Q184.93,140.06,179.23,142.86Z"/><path class="cls-2" d="M143.32,132.21l11-12.05L153.16,119l-20.73,2.54c-5.8,4.51-11.74,6.8-17.66,6.81a23.22,23.22,0,0,1-4.7-.49l-.16,0a33.79,33.79,0,0,1-6.86-2.36l-8.39,13.59,1.3.83q3.29-3.19,26-4.87-3.21,3.87-5.75,7.21l.24,52.83q2.23,9.21,10,9.92l10.4-10.75-.93-2q-4.77.7-5.82-8.76l.25-49.68Z"/><path class="cls-2" d="M298.8,168.67q-2-3.4-1.33-62.86a16.6,16.6,0,0,0-.51-2.18,26.14,26.14,0,0,1-12.85,5.59l-.94.09a18.9,18.9,0,0,1,1.61,7.47q-.61,58.08.37,62.45t5.82,6.56l15.85-13.34L305,170.7C302.2,171.62,300.14,170.94,298.8,168.67Z"/><path class="cls-2" d="M8.6,53.34l49.9-6.13,1.11,1.17-11,12L35.72,62l-.25,49.68q1.05,9.47,5.82,8.75l.93,2-10.4,10.75q-7.8-.7-10-9.91l-.25-52.83q2.54-3.35,5.76-7.21Q4.57,64.92,1.3,68.1L0,67.27Z"/><path class="cls-2" d="M135.89,72.62q1.31,8.38-11.76,18.1L110.7,101.16q1.29,3.5,8.69,5.49t19.9-8.14l1.86,1.26q-2.85,6.3-12,14.19t-17.51,6.14q-10.35-2.37-14.15-10.55T96.09,91a38.9,38.9,0,0,1,10.77-18.88q8.42-8.52,18.07-8.22T135.89,72.62ZM106.8,92.17a26.15,26.15,0,0,0,2,5.87q13.06-8.6,13.93-14.24c.57-3.77-1-6.54-4.65-8.32s-6.63-1.42-8.88,1.06A11.4,11.4,0,0,0,106,84.77,42.5,42.5,0,0,0,106.8,92.17Z"/><path class="cls-2" d="M156.57,26.88q1.17.16,3,4.06T160.65,68q9-12.18,19.41-11.63T194,64.28q3.56,7.34,2,17.33a33.08,33.08,0,0,1-7.52,17,88.13,88.13,0,0,1-13.4,12.63q-7.41,5.64-17.55-1.12t-11-13.42q-.81-6.64-.31-32.4t-2.54-27.11ZM161,73.31q-1.78,22.51,2.88,28.06t14.64.56Q182.88,90.7,182.1,82T176.9,70.5A10.92,10.92,0,0,0,167.68,69Q162.88,70.29,161,73.31Z"/><path class="cls-2" d="M242.12,105.39q-4.77-2.64-4.21-10.32a52.31,52.31,0,0,1-4.8,5.11,46.9,46.9,0,0,1-8,5.93,12.83,12.83,0,0,1-10.46,1.41q-5.62-1.55-7.61-5.78t-1.42-12.3q.48-13.06-.31-19.37t-3.16-4.29L201,64.5l12.88-13.09q4.89,2.69,5.32,7.05t.13,23q-.08,13,5.41,14.41t13.4-6.75q.69-17.23-.37-23.29T233.08,62l-.62-1,13.12-13q5.21,2.52,6,6.54t.18,30.89c0,4.34,1.37,6.07,4.09,5.2l1.42,1.86Z"/><path class="cls-2" d="M404.3,39.67q1.31,8.37-11.76,18.09L379.11,68.2q1.29,3.49,8.7,5.49t19.9-8.13l1.85,1.25q-2.83,6.3-11.94,14.19T380.1,87.15Q369.77,84.77,366,76.59T364.5,58.08a39,39,0,0,1,10.77-18.87q8.42-8.53,18.08-8.23T404.3,39.67ZM375.21,59.21a26.4,26.4,0,0,0,2,5.88q13.06-8.6,13.93-14.25t-4.64-8.31q-5.52-2.67-8.89,1.06a11.36,11.36,0,0,0-3.22,8.22A44.43,44.43,0,0,0,375.21,59.21Z"/><path class="cls-2" d="M431.91,0q3,2.17,3.65,7.41l-.68,20.89L450,26.63l.49,1.17-8.11,11-7.73,1Q434,58,434.79,63.53t14.08-2.84L450,65.38Q438.1,76.56,429.62,82q-6.12-3.51-7.27-8.67t0-32q-7.74.59-10.65,4.22L409.75,44l8.91-13.29,4-.55q1.6-20.7-2-19.87Z"/><path class="cls-2" d="M356.39,73.87q-1-5.59-.43-18.67.42-8-1.3-12.63t-7.37-6.12a12.84,12.84,0,0,0-10.46,1.41,46.9,46.9,0,0,0-8,5.93,59.91,59.91,0,0,1-6,5.07l-.25-33.53q-.79-5.22-3.84-7.32l-10.64,9.85A20.11,20.11,0,0,1,310,26.12q-.24,58.59.84,62.88a17.68,17.68,0,0,0,4.42,7.84L328.35,83V81.49q-4.16,1.44-5.26-4-1-4.72-.58-18.4l-6.8,1.64,6.94-5.89h0c.76-.68,1.5-1.31,2.23-1.89h0q7.55-6,12.34-4.82,5.47,1.4,5.42,14.41-.31,18.6.12,23c.29,2.91,2.06,5.27,5.32,7L360.6,79.64l.06-1.56C358.51,79,357.09,77.6,356.39,73.87Z"/><path class="cls-2" d="M303.21,78.26a39,39,0,0,1-4,4.8,10.49,10.49,0,0,1-6.41,3.08,14.08,14.08,0,0,1-8.51-2q-13.09-5.7-11.16-20.65l-6.38,1.54,9.17-7.79,0,0c1.63-1.35,3.9-1.84,6.86-1.42Q289.4,57.56,292,65l12.13-11q-.18-5.35-4.05-7.95a17.13,17.13,0,0,0-7.65-3,12.36,12.36,0,0,0-7.24,1.42,44.81,44.81,0,0,0-6.5,4.14c-2,1.54-4.11,3.32-6.25,5.31q-22.23,19.82-7.74,38.65a23,23,0,0,0,8.29,6.2,20.51,20.51,0,0,0,10.06,1q5.85-.69,12-7.14A81.32,81.32,0,0,0,305.2,79.75Z"/><path class="cls-2" d="M84.57,67.9q-5.7,2.82-12.13,11.71.56-7.68-4.21-10.32L53.06,82.23l1.43,1.87q4.57-3.34,4.08,5.2-.62,26.88.19,30.89c.53,2.68,2.54,4.86,6,6.54l13.13-13v-1.49q-4.15,1.44-5.26-4-1-4.77-.58-18.62l-6.44,1.56,6.58-5.59v0q7.92-8.14,13.93-.29l11.2-11.71Q90.27,65.11,84.57,67.9Z"/></g></g></svg>