<svg xmlns="http://www.w3.org/2000/svg" xmlns:xlink="http://www.w3.org/1999/xlink" viewBox="0 0 483.12 225.57"><defs><style>.cls-1{fill:url(#linear-gradient);}.cls-2{fill:#1e1e1e;}.cls-3{fill:url(#linear-gradient-2);}.cls-4{fill:#6c0008;}.cls-5{fill:url(#linear-gradient-3);}.cls-6{fill:url(#linear-gradient-4);}.cls-7{fill:url(#linear-gradient-5);}.cls-8{fill:url(#linear-gradient-6);}.cls-9{fill:url(#linear-gradient-7);}.cls-10{fill:url(#linear-gradient-8);}.cls-11{fill:url(#linear-gradient-9);}.cls-12{fill:url(#linear-gradient-10);}.cls-13{fill:url(#linear-gradient-11);}.cls-14{fill:url(#linear-gradient-12);}.cls-15{fill:url(#linear-gradient-13);}.cls-16{fill:url(#linear-gradient-14);}.cls-17{fill:url(#linear-gradient-15);}.cls-18{fill:url(#linear-gradient-16);}.cls-19{fill:url(#linear-gradient-17);}.cls-20{fill:url(#linear-gradient-18);}.cls-21{fill:url(#linear-gradient-19);}.cls-22{fill:#e8a508;}</style><linearGradient id="linear-gradient" x1="186.17" y1="58.1" x2="205.69" y2="58.1" gradientTransform="translate(10.91 -28.68) rotate(8.61)" gradientUnits="userSpaceOnUse"><stop offset="0" stop-color="#a17206"/><stop offset="0.04" stop-color="#ad7b06"/><stop offset="0.12" stop-color="#c38a07"/><stop offset="0.22" stop-color="#d49607"/><stop offset="0.34" stop-color="#df9f08"/><stop offset="0.52" stop-color="#e6a408"/><stop offset="1" stop-color="#e8a508"/></linearGradient><linearGradient id="linear-gradient-2" x1="260.11" y1="37.59" x2="340.4" y2="37.59" gradientUnits="userSpaceOnUse"><stop offset="0" stop-color="#a12323"/><stop offset="0.91" stop-color="#ed3334"/></linearGradient><linearGradient id="linear-gradient-3" x1="222.62" y1="30.97" x2="272.56" y2="30.97" gradientUnits="userSpaceOnUse"><stop offset="0.26" stop-color="#a12323"/><stop offset="1" stop-color="#ed3334"/></linearGradient><linearGradient id="linear-gradient-4" x1="186.82" y1="25.18" x2="238.34" y2="25.18" gradientUnits="userSpaceOnUse"><stop offset="0" stop-color="#c42a2b"/><stop offset="0.91" stop-color="#ed3334"/></linearGradient><linearGradient id="linear-gradient-5" x1="36.06" y1="68.35" x2="76.44" y2="138.29" gradientUnits="userSpaceOnUse"><stop offset="0" stop-color="#f2ece2"/><stop offset="0.35" stop-color="#f0eae0"/><stop offset="0.52" stop-color="#e8e3d9"/><stop offset="0.65" stop-color="#dbd6cd"/><stop offset="0.77" stop-color="#c8c4bc"/><stop offset="0.87" stop-color="#b1ada5"/><stop offset="0.91" stop-color="#a3a099"/></linearGradient><linearGradient id="linear-gradient-6" x1="123.56" y1="91.97" x2="148.18" y2="134.62" xlink:href="#linear-gradient-5"/><linearGradient id="linear-gradient-7" x1="161.08" y1="55.13" x2="202.3" y2="126.53" xlink:href="#linear-gradient-5"/><linearGradient id="linear-gradient-8" x1="231.84" y1="71.9" x2="262.27" y2="124.61" xlink:href="#linear-gradient-5"/><linearGradient id="linear-gradient-9" x1="391.98" y1="59.02" x2="416.6" y2="101.66" xlink:href="#linear-gradient-5"/><linearGradient id="linear-gradient-10" x1="431.04" y1="31.37" x2="465.97" y2="91.87" xlink:href="#linear-gradient-5"/><linearGradient id="linear-gradient-11" x1="321.8" y1="37.14" x2="365.73" y2="113.24" xlink:href="#linear-gradient-5"/><linearGradient id="linear-gradient-12" x1="290.32" y1="72.31" x2="314.31" y2="113.86" xlink:href="#linear-gradient-5"/><linearGradient id="linear-gradient-13" x1="81.26" y1="92.63" x2="105.27" y2="134.21" xlink:href="#linear-gradient-5"/><linearGradient id="linear-gradient-14" x1="206.67" y1="144.71" x2="241.57" y2="205.16" xlink:href="#linear-gradient-5"/><linearGradient id="linear-gradient-15" x1="254.2" y1="160.27" x2="283.2" y2="210.49" xlink:href="#linear-gradient-5"/><linearGradient id="linear-gradient-16" x1="337.1" y1="151.44" x2="362.32" y2="195.12" xlink:href="#linear-gradient-5"/><linearGradient id="linear-gradient-17" x1="175.92" y1="167.58" x2="199.93" y2="209.16" xlink:href="#linear-gradient-5"/><linearGradient id="linear-gradient-18" x1="130.81" y1="140.3" x2="171.1" y2="210.08" xlink:href="#linear-gradient-5"/><linearGradient id="linear-gradient-19" x1="292.79" y1="134.61" x2="327.86" y2="195.35" xlink:href="#linear-gradient-5"/></defs><title>logo-3</title><g id="Layer_2" data-name="Layer 2"><g id="Layer_1-2" data-name="Layer 1"><rect class="cls-1" x="194.43" y="2.8" width="3" height="110.59" transform="translate(-6.49 29.99) rotate(-8.61)"/><path class="cls-2" d="M483.12,50.15,476,33.23l-9.84,1.09.23-6.95-.14-1.05c-1.16-8.89-5.46-13.72-8.86-16.22l-8.59-6.29-38,34.76h-.28c-9.77,0-18.74,4.07-26.67,12.1-.78.79-1.52,1.59-2.24,2.4A24,24,0,0,0,368.5,44.5a27.54,27.54,0,0,0-7.19-1,25.4,25.4,0,0,0-7.81,1.22l-.07-9.86-.14-.93c-1.37-8.88-5.8-13.61-9.27-16l-8.58-6L309.83,35.65l4.53,8.69a11.42,11.42,0,0,1,.39,2.68c0,1.46,0,2.87,0,4.26a29.14,29.14,0,0,0-3.19-.55c-.91-.09-1.83-.14-2.73-.14a25.45,25.45,0,0,0-11.92,3,59.13,59.13,0,0,0-8.37,5.33c-2.31,1.77-4.7,3.8-7.1,6-.55.49-1.08,1-1.6,1.47A24,24,0,0,0,269,56.84l-8.29-4L246,67.48a24.49,24.49,0,0,0-8-6.88l-8.63-4.73L215.66,69.74c-3.93-2.94-9.44-5.32-17.12-5.73C198,64,197.48,64,197,64a30.1,30.1,0,0,0-5.39.49c-.27-12.41-1.22-15.73-2.43-18.37-1.3-2.82-4.76-10.32-12.95-11.48l-5.58-.8L136.86,60.92l13.95,6.28c.11,1.37.21,3.23.27,5.69a28.7,28.7,0,0,0-8-1.35l-1.06,0c-8.2,0-15.84,2.89-22.78,8.57-4.45-3.51-9.14-5.29-14-5.29a19.36,19.36,0,0,0-8.66,2A30.76,30.76,0,0,0,93,78.92l-.71-.41-4-2.22,6.87-7.56-14-14.62L18.61,61.79,0,91.92l20.76,13.27,5.61-5.45.21,45.72.36,1.47c2.81,11.59,10.64,18.81,21.48,19.8l6.2.57,13.95-14.42A26,26,0,0,0,76.88,159l8.28,4L107,141.38c3.74,4.9,9.78,9.74,19.54,12l.26.06a28.43,28.43,0,0,0,5.73.59c7.86,0,15.59-3.24,23-9.64a89.06,89.06,0,0,0,7.18-6.92,60.14,60.14,0,0,0,5.44,4.06c5.85,3.9,11.72,5.88,17.46,5.88a24.92,24.92,0,0,0,15.19-5.23,100.8,100.8,0,0,0,13.4-12.28c2.41,4,6.83,8.57,14.87,10.77a27.58,27.58,0,0,0,7.2,1,25.56,25.56,0,0,0,13.46-3.84c.78-.47,1.53-1,2.27-1.44.52.35,1.06.68,1.64,1l7.88,4.35,17-14.52a31.71,31.71,0,0,0,7.39,4.26,31.13,31.13,0,0,0,11.63,2.12h0a41.35,41.35,0,0,0,4.77-.29c6.55-.76,12.85-4.1,18.75-9.91a33.15,33.15,0,0,0,2.5,3l9.44,10,18.2-19.23a24.33,24.33,0,0,0,8.45,7.42l8.69,4.75,13.92-14.38A36.28,36.28,0,0,0,395,120.41l.27,0a27.6,27.6,0,0,0,5.73.6c7.86,0,15.58-3.25,22.95-9.65a88.5,88.5,0,0,0,7-6.68,29.25,29.25,0,0,0,10.05,9.13l6.85,3.93,6.64-4.26c6.39-4.09,13.67-10,22.26-18.09l5.48-5.15-7-29.36Z"/><path class="cls-3" d="M287,25.28c15.08-3.6,19.2-4.5,31.88-.75,12.93,3.83,21.5-2.62,21.5-2.62s-6.08,10.64-24,6.49c0,0-11.62-2.68-22,7,14.24-2.49,21.83,7.26,29.32,10.13s15.91-4.19,15.91-4.19a18,18,0,0,1-19.3,6.35c-9.22-2.5-15.53-3.08-33.63,3s-26.2-.69-26.2-.69l-.34-25.72s9.64,4.67,24.68,1.48l1.64,4Z"/><path class="cls-4" d="M260.45,50a19.4,19.4,0,0,0,12.11-2.91S268.8,40.32,259,40.56Z"/><path class="cls-5" d="M252.59,42.43c16.14-3.66,20,4.7,20,4.7L268.4,20.45s-4.18-9.12-22.18-4.15-23.6-.23-23.6-.23l4.16,26.68s5.6,5.21,23.6.24l.24-4.94Z"/><path class="cls-6" d="M210.76,10.25l7.14-.87.58,3.72.32-3.83c3.26-.36,14.37-1.14,15.23,4.43l4.31,27.64c-1-6.54-16.13-4.32-16.13-4.32l-30.15,3.67a1.14,1.14,0,0,1-1.27-1l-4-25.37a1.15,1.15,0,0,1,1-1.32l20.67-2.52,2.14,4.83Z"/><path class="cls-4" d="M226.78,42.75a19.29,19.29,0,0,0,11.56-1.41s0-5.4-12.5-4.64Z"/><path class="cls-7" d="M26.39,73.93l49.9-6.12L77.4,69l-11,12L53.5,82.61l-.24,49.68q1.05,9.47,5.82,8.76l.92,2L49.6,153.78q-7.8-.71-10-9.91L39.33,91q2.54-3.35,5.76-7.21-22.72,1.68-26,4.86l-1.3-.83Z"/><path class="cls-8" d="M153.68,93.21q1.29,8.39-11.77,18.1l-13.43,10.44q1.31,3.5,8.7,5.49t19.9-8.13l1.86,1.25q-2.85,6.3-11.95,14.19t-17.52,6.14q-10.34-2.37-14.14-10.55t-1.46-18.51a39,39,0,0,1,10.77-18.87q8.43-8.54,18.08-8.23T153.68,93.21Zm-29.1,19.55a26.4,26.4,0,0,0,2,5.88q13.06-8.6,13.93-14.25c.58-3.76-1-6.54-4.64-8.31s-6.63-1.43-8.88,1.06a11.32,11.32,0,0,0-3.22,8.22A43.63,43.63,0,0,0,124.58,112.76Z"/><path class="cls-9" d="M174.35,47.47q1.18.16,3,4.06t1.12,37.1q9-12.19,19.4-11.64t13.93,7.88q3.57,7.34,2,17.33a33.09,33.09,0,0,1-7.53,17,87.67,87.67,0,0,1-13.4,12.63q-7.39,5.66-17.55-1.12t-11-13.42q-.81-6.65-.31-32.4t-2.54-27.11Zm4.46,46.43Q177,116.42,181.69,122t14.64.56q4.33-11.23,3.56-19.91t-5.2-11.52a10.93,10.93,0,0,0-9.23-1.53Q180.68,90.9,178.81,93.9Z"/><path class="cls-10" d="M259.9,126q-4.77-2.62-4.21-10.32a50.82,50.82,0,0,1-4.79,5.11,46.9,46.9,0,0,1-8,5.93,12.81,12.81,0,0,1-10.46,1.41q-5.64-1.55-7.61-5.78T223.44,110q.5-13.07-.31-19.37c-.53-4.21-1.59-5.63-3.16-4.29l-1.17-1.28L231.67,72q4.89,2.69,5.33,7t.12,23q-.06,13,5.42,14.41t13.4-6.75q.68-17.23-.37-23.29t-4.71-3.82l-.61-1,13.12-13q5.2,2.52,6,6.54t.19,30.9q0,6.49,4.09,5.19l1.42,1.87Z"/><path class="cls-11" d="M422.09,60.26q1.31,8.38-11.76,18.09L396.89,88.79q1.31,3.49,8.7,5.5t19.9-8.14l1.86,1.26q-2.85,6.28-12,14.18t-17.51,6.15q-10.35-2.38-14.15-10.55t-1.45-18.52A38.83,38.83,0,0,1,393.06,59.8q8.42-8.52,18.07-8.23T422.09,60.26ZM393,79.8A27,27,0,0,0,395,85.68Q408.09,77.09,409,71.43c.57-3.76-1-6.53-4.65-8.31s-6.63-1.42-8.88,1.06a11.4,11.4,0,0,0-3.22,8.23A43.5,43.5,0,0,0,393,79.8Z"/><path class="cls-12" d="M449.7,20.59q3,2.18,3.65,7.42l-.68,20.88,15.1-1.67.5,1.18-8.11,11-7.74.95q-.62,18.21.16,23.75t14.08-2.84L467.77,86q-11.88,11.19-20.36,16.62-6.14-3.53-7.28-8.68t0-32q-7.74.59-10.64,4.22l-1.92-1.5,8.91-13.29,4-.55q1.62-20.68-2-19.87Z"/><path class="cls-13" d="M374.18,94.46q-1.06-5.59-.44-18.67.43-8-1.3-12.62T365.08,57a12.86,12.86,0,0,0-10.47,1.41,47.32,47.32,0,0,0-7.95,5.93,61.06,61.06,0,0,1-6,5.07l-.25-33.52c-.54-3.48-1.82-5.93-3.84-7.33L326,38.45a20.3,20.3,0,0,1,1.8,8.26q-.25,58.59.83,62.88a17.73,17.73,0,0,0,4.43,7.85l13.12-13.87v-1.49q-4.14,1.44-5.26-4-1-4.74-.58-18.41l-6.79,1.64,6.94-5.89h0c.76-.68,1.5-1.3,2.22-1.88h0q7.56-6,12.35-4.82,5.48,1.4,5.41,14.41-.3,18.6.13,23t5.32,7.05l12.51-12.92.06-1.56C376.3,99.6,374.88,98.19,374.18,94.46Z"/><path class="cls-14" d="M321,98.85a39,39,0,0,1-4,4.8,10.49,10.49,0,0,1-6.41,3.08,14.07,14.07,0,0,1-8.51-2q-13.1-5.7-11.17-20.64l-6.37,1.53,9.17-7.79,0,0c1.62-1.34,3.89-1.84,6.85-1.42q6.63,1.67,9.16,9.15l12.14-11q-.19-5.37-4.06-8a17.14,17.14,0,0,0-7.64-3,12.43,12.43,0,0,0-7.24,1.42,44.28,44.28,0,0,0-6.5,4.14c-2,1.55-4.11,3.32-6.26,5.32q-22.21,19.8-7.73,38.64a23,23,0,0,0,8.29,6.2,20.51,20.51,0,0,0,10.06,1q5.85-.69,12-7.14A80.78,80.78,0,0,0,323,100.34Z"/><path class="cls-15" d="M102.36,88.5q-5.7,2.81-12.13,11.7.55-7.68-4.21-10.32l-15.17,13,1.42,1.87c3.06-2.24,4.42-.5,4.09,5.19q-.61,26.88.19,30.9t6,6.53l13.12-13v-1.48q-4.14,1.42-5.26-4-1-4.77-.57-18.61l-6.44,1.55L90,106.19v0q7.92-8.15,13.93-.28l11.2-11.72Q108.06,85.7,102.36,88.5Z"/><path class="cls-16" d="M223.16,135.19q5.44,1,7.36,4.85t.65,5.74q-1.26,1.89-11.67,10.1a22.55,22.55,0,0,0-8.72-8.46Zm-8.88,36.65-1-1.61L228,158.28a10.35,10.35,0,0,1,3.37,6.86c.11,2.4,0,7.51-.18,15.34s-.09,13.3.43,16.41,1.91,4.5,4.18,4.13l-.06,1.62-12.32,13q-5.07-2.41-5.51-7t-.12-24Q219.54,168.23,214.28,171.84Z"/><path class="cls-17" d="M285.42,155.54q5.44,2.52,6.13,10.8l-.06,21.92q1.35,6.65,6.37,5l.74,1.4-11,13.29q-8.61-.55-10.09-8.91a43.66,43.66,0,0,1-8.3,8.38,23,23,0,0,1-10.15,4.09c-4,.65-8-.54-12-3.6a13.16,13.16,0,0,1-5.41-12.27l15.41-19.23,20-2.76q1.42-15.9-10-14.22t-5.3,10.34L248,179.48q-5.57-9.84,4.09-17.4t18.75-8.31C276.94,153.27,281.79,153.87,285.42,155.54Zm-31.08,31L252.05,189q6.57,10.28,14.67,9.62t10.34-3.77V183.71Z"/><path class="cls-18" d="M363.26,144c3,1.15,4.86,3.09,5.48,5.82l-9.22,9.93-.81-.83q2-2.93-4-5.12t-10.37-1c-2.91.79-3.8,2.29-2.66,4.48s5.26,3.84,12.38,4.95,11.76,2.78,13.93,5a13.9,13.9,0,0,1,3.81,8.26,17.69,17.69,0,0,1-2.17,10.17,29.74,29.74,0,0,1-8.54,9.78q-5.82,4.5-11.64,4.87a32,32,0,0,1-11.39-1.3,20.36,20.36,0,0,1-9.19-5.49c-2.42-2.55-3.25-4.95-2.51-7.19l9.59-9.47,1.43.69c-1.7,2-1.54,3.87.46,5.64a23.54,23.54,0,0,0,7.24,4.31,26.06,26.06,0,0,0,8.83,1.77q4.57.12,6.84-1.06a3.37,3.37,0,0,0,2-3.62c-.19-1.62-1.32-3.26-3.41-4.9s-6.3-2.74-12.66-3.28-10.9-1.88-13.65-4-3.62-5-2.63-8.56a21.3,21.3,0,0,1,4.37-8.58,48.8,48.8,0,0,1,7-6.33,30.87,30.87,0,0,1,10.52-4.89Q358.72,142.31,363.26,144Z"/><path class="cls-19" d="M197,163.45q-5.7,2.81-12.13,11.7.56-7.68-4.21-10.31l-15.17,12.94,1.43,1.87q4.58-3.35,4.08,5.19-.61,26.88.19,30.9c.53,2.68,2.54,4.86,6,6.54l13.13-13v-1.48q-4.16,1.44-5.27-4-1-4.75-.57-18.57l-6.69,1.62,7.58-6.44a17.88,17.88,0,0,1,1.55-1.32l0,0h0q6.5-4.87,11.59,1.79l11.2-11.71Q202.72,160.64,197,163.45Z"/><path class="cls-20" d="M161.11,152.81l10.95-12.06L171,139.59l-20.74,2.54c-5.8,4.51-11.73,6.81-17.66,6.81a23.12,23.12,0,0,1-4.69-.49l-.16,0a33.79,33.79,0,0,1-6.86-2.36l-8.39,13.59,1.3.83q3.28-3.19,26-4.87-3.23,3.87-5.76,7.21l.25,52.84q2.22,9.19,10,9.91l10.4-10.75-.93-2q-4.77.71-5.82-8.76l.25-49.67Z"/><path class="cls-21" d="M316.59,189.26q-2-3.4-1.33-62.85a15.88,15.88,0,0,0-.51-2.18,26.24,26.24,0,0,1-12.86,5.58l-.93.09a19.3,19.3,0,0,1,1.61,7.47q-.63,58.09.37,62.45t5.82,6.56L324.6,193l-1.85-1.75Q318.6,192.67,316.59,189.26Z"/><circle class="cls-22" cx="187.65" cy="3.42" r="3.42"/></g></g></svg>