<svg xmlns="http://www.w3.org/2000/svg" viewBox="0 0 483.12 224.66"><defs><style>.cls-1{fill:#f2ece2;}.cls-2{fill:#ed3334;}.cls-3{fill:#1e1e1e;}</style></defs><title>logo-2</title><g id="Layer_2" data-name="Layer 2"><g id="Layer_1-2" data-name="Layer 1"><path class="cls-1" d="M223.16,134.28q5.44,1,7.36,4.86c1.28,2.56,1.5,4.48.65,5.74s-4.73,4.62-11.67,10.1a22.58,22.58,0,0,0-8.72-8.47Zm-8.88,36.66-1-1.61,14.67-12a10.33,10.33,0,0,1,3.37,6.86c.11,2.4,0,7.51-.18,15.34s-.09,13.3.43,16.41,1.91,4.49,4.18,4.13l-.06,1.62-12.32,13q-5.07-2.42-5.51-7t-.12-24Q219.54,167.34,214.28,170.94Z"/><path class="cls-1" d="M285.42,154.64q5.44,2.52,6.13,10.79l-.06,21.92q1.35,6.65,6.37,5l.74,1.39-11,13.3q-8.61-.56-10.09-8.92a43.44,43.44,0,0,1-8.3,8.39,23,23,0,0,1-10.15,4.09q-5.94,1-12-3.6a13.17,13.17,0,0,1-5.41-12.28l15.41-19.22,20-2.77q1.42-15.89-10-14.21t-5.3,10.33L248,178.58q-5.57-9.84,4.09-17.4t18.75-8.31Q280,152.12,285.42,154.64Zm-31.08,31-2.29,2.45q6.57,10.27,14.67,9.62T277.06,194V182.81Z"/><path class="cls-1" d="M363.26,143.13c3,1.16,4.86,3.1,5.48,5.83l-9.22,9.92-.81-.83q2-2.91-4-5.11t-10.37-1q-4.36,1.19-2.66,4.47t12.38,5q10.68,1.66,13.93,5a13.87,13.87,0,0,1,3.81,8.26,17.69,17.69,0,0,1-2.17,10.17,29.74,29.74,0,0,1-8.54,9.78q-5.82,4.49-11.64,4.86a32.22,32.22,0,0,1-11.39-1.29,20.29,20.29,0,0,1-9.19-5.5c-2.42-2.55-3.25-4.94-2.51-7.18L336,176l1.43.69c-1.7,2-1.54,3.86.46,5.64a23.74,23.74,0,0,0,7.24,4.31,25.81,25.81,0,0,0,8.83,1.76q4.57.12,6.84-1a3.37,3.37,0,0,0,2-3.62c-.19-1.63-1.32-3.26-3.41-4.91s-6.3-2.73-12.66-3.27-10.9-1.88-13.65-4-3.62-5-2.63-8.56a21.17,21.17,0,0,1,4.37-8.58,48.84,48.84,0,0,1,7-6.34,31,31,0,0,1,10.52-4.88Q358.72,141.41,363.26,143.13Z"/><path class="cls-1" d="M197,162.55q-5.7,2.8-12.13,11.7.56-7.68-4.21-10.32l-15.17,12.95,1.43,1.87c3.05-2.24,4.41-.5,4.08,5.19q-.61,26.88.19,30.9c.53,2.68,2.54,4.85,6,6.53l13.13-13v-1.48q-4.16,1.43-5.27-4-1-4.75-.57-18.57l-6.69,1.61,7.58-6.44a19.63,19.63,0,0,1,1.55-1.31l0,0h0c4.33-3.25,8.19-2.67,11.59,1.79l11.2-11.72Q202.72,159.75,197,162.55Z"/><path class="cls-1" d="M161.11,151.9l10.95-12.05L171,138.69l-20.74,2.54c-5.8,4.5-11.73,6.8-17.66,6.8a23.11,23.11,0,0,1-4.69-.48l-.16,0a33.2,33.2,0,0,1-6.86-2.35l-8.39,13.58,1.3.84q3.28-3.2,26-4.87-3.23,3.87-5.76,7.21l.25,52.83q2.22,9.21,10,9.91l10.4-10.74-.93-2q-4.77.7-5.82-8.76l.25-49.68Z"/><g id="LINE"><polygon class="cls-2" points="245.01 15.75 217.44 9.51 215.97 7.18 217.27 1.47 219.59 0 247.22 6.25 385.72 39.22 384.91 42.8 245.01 15.75"/></g><g id="LINE-2" data-name="LINE"><path class="cls-2" d="M241.77,28.23,228.49,15.74a3.07,3.07,0,0,1-1-2.22V5.18l0-.33-.06-.33-.11-.32-.15-.29L227,3.63l-.22-.25-.25-.22L226.26,3l-.3-.15-.31-.11-.33-.06-.33,0h-3.05l-.33,0-.33.06-.31.11-.3.15-.28.18-.25.22-.22.25-.18.28-.15.29-.1.32-.07.33,0,.33v8.34a3.07,3.07,0,0,1-1,2.22L205.17,28.23l-3.26,2.87-2.09,2a3,3,0,0,0-1,2.22V50.62h0a3,3,0,0,0,3,3.05H245a3,3,0,0,0,3-3.05V35.29a3.07,3.07,0,0,0-1-2.22l-2.09-2Z"/></g><g id="LINE-3" data-name="LINE"><path class="cls-2" d="M305,122.32a.7.7,0,0,1-.57-.3L265.19,66.08V119l0,.18,0,.17-.07.17-.08.16-.11.16-.12.13-.14.12-.14.11-.17.08-.17.07-.18,0-.17,0h-5.47l-.18,0-.18,0-.17-.07-.16-.08-.15-.11-.13-.12-.12-.13-.11-.16-.09-.16-.06-.17,0-.17,0-.17V66.08l-37.32,53.29a.68.68,0,0,1-.57.3h-4.52a.69.69,0,0,1-.69-.7v-5.6a.67.67,0,0,1,.12-.39l43-61.37V1.15h8.3V51.61l44.89,64a.67.67,0,0,1,.12.39v5.6a.69.69,0,0,1-.69.7Z"/></g><circle class="cls-2" cx="261.04" cy="7.89" r="2.42"/><path class="cls-2" d="M400.35,32.07A13.44,13.44,0,1,1,374,27Z"/><path class="cls-1" d="M316.59,188.36q-2-3.41-1.33-62.86a16.6,16.6,0,0,0-.51-2.18,26.17,26.17,0,0,1-12.86,5.59L301,129a19.26,19.26,0,0,1,1.61,7.47q-.63,58.08.37,62.45t5.82,6.56l15.84-13.34-1.85-1.75Q318.6,191.77,316.59,188.36Z"/><path class="cls-3" d="M48.42,165.83c-10.84-1-18.67-8.21-21.48-19.8l-.36-1.48-.21-45.71-5.61,5.45L0,91,18.61,60.89,81.17,53.2l14,14.63L72.82,92.43l-6.37.79-.17,32.7.48-.07,8.81,18.89L54.62,166.4Z"/><path class="cls-3" d="M132.55,153.11a28.43,28.43,0,0,1-5.73-.59l-.26-.06c-13.66-3.14-20-11.37-23-17.73-3.77-8.09-4.56-17.14-2.34-26.89a51.94,51.94,0,0,1,14.19-25.12c7.94-8,16.91-12.1,26.67-12.1h1.06c12.61.4,21.58,7.94,23.4,19.69a24.24,24.24,0,0,1-3.34,16.32l12.12,8.2-4.52,10c-2.71,6-7.7,12.08-15.27,18.65C148.14,149.87,140.41,153.11,132.55,153.11Z"/><path class="cls-3" d="M185.59,146.49c-5.74,0-11.61-2-17.46-5.88-10.18-6.78-15.63-14.2-16.65-22.68-.39-3.23-.86-10.31-.4-34.2.17-9.09,0-14.41-.27-17.43L136.86,60,170.6,32.9l5.58.79c8.19,1.17,11.65,8.67,12.95,11.49,1.21,2.64,2.16,6,2.43,18.36a30.1,30.1,0,0,1,5.39-.48c.53,0,1.05,0,1.59,0,15.68.84,22.35,9.87,24.93,15.18,3.53,7.28,4.61,15.68,3.2,25a46,46,0,0,1-10.52,23.51,101.1,101.1,0,0,1-15.37,14.5A24.92,24.92,0,0,1,185.59,146.49Z"/><path class="cls-3" d="M253.62,136.46c-.58-.32-1.12-.65-1.64-1-.74.48-1.49,1-2.27,1.44a25.55,25.55,0,0,1-13.46,3.83,27.56,27.56,0,0,1-7.2-1c-9.45-2.58-13.9-8.4-16-12.83-2.26-4.85-3.12-10.9-2.62-18.48.25-6.78.19-11.2,0-14.08l-9.63-10.47L229.3,55l8.63,4.73a24.58,24.58,0,0,1,8,6.87l14.78-14.64,8.29,4c9.09,4.4,12.13,11,13.08,15.68.49,2.47,1,7,.54,29L292.87,114,261.5,140.81Z"/><path class="cls-3" d="M440.93,113c-9.17-5.27-12.4-12.22-13.49-17.13-.53-2.4-1-6.27-.87-16.39L410,66.5l13.28-19.78-29.72,6.67L448.79,2.91l8.59,6.29c3.4,2.49,7.7,7.33,8.86,16.22l.14,1-.23,7L476,32.33l7.13,16.92L475.19,60l7,29.35-5.48,5.16c-8.59,8.08-15.87,14-22.26,18.09l-6.64,4.26Z"/><path class="cls-3" d="M323.55,125.45A30.5,30.5,0,0,1,316,111.87c-.66-2.61-1.48-5.86-1.23-65.75a11.3,11.3,0,0,0-.39-2.68l-4.53-8.69,25.61-23.69L344,17c3.47,2.41,7.9,7.15,9.27,16l.14.94.07,9.86a25.4,25.4,0,0,1,7.81-1.22,27.54,27.54,0,0,1,7.19,1c7.75,2.12,13.47,7.11,16.1,14.06,1.82,4.82,2.51,10.68,2.12,17.92-.07,1.67-.13,3.18-.16,4.53l5.69-2.45-1.07,27.14-22.85,23.61-8.69-4.76a24.13,24.13,0,0,1-8.45-7.42L333,135.47Z"/><path class="cls-3" d="M297.53,132.67a31.13,31.13,0,0,1-11.63-2.13A35.71,35.71,0,0,1,272.8,121l-.35-.39-.32-.41c-13.86-18-10.48-38.5,9.29-56.19,2.4-2.23,4.79-4.26,7.1-6a58.25,58.25,0,0,1,8.37-5.33,25.45,25.45,0,0,1,11.92-3c.9,0,1.82.05,2.73.14A30,30,0,0,1,325,55c6.07,4.06,9.55,10.56,9.82,18.3l.21,6-7.82,7.11,13.08,9.84L334,106.34a94.35,94.35,0,0,1-11.8,15c-6.23,6.53-12.93,10.25-19.9,11.07a41.35,41.35,0,0,1-4.77.29Z"/><path class="cls-1" d="M26.39,73l49.9-6.13,1.11,1.17-11,12.05L53.5,81.71l-.24,49.68q1.05,9.47,5.82,8.75l.92,2L49.6,152.88q-7.8-.7-10-9.91l-.25-52.83q2.54-3.35,5.76-7.21-22.72,1.68-26,4.86L17.79,87Z"/><path class="cls-1" d="M153.68,92.31q1.29,8.39-11.77,18.1l-13.43,10.44q1.31,3.5,8.7,5.49t19.9-8.14l1.86,1.26q-2.85,6.3-11.95,14.19t-17.52,6.14q-10.34-2.37-14.14-10.55t-1.46-18.52a39.08,39.08,0,0,1,10.77-18.87q8.43-8.52,18.08-8.22T153.68,92.31Zm-29.1,19.55a26.32,26.32,0,0,0,2,5.87q13.06-8.6,13.93-14.24t-4.64-8.32q-5.5-2.65-8.88,1.06a11.36,11.36,0,0,0-3.22,8.23A43.75,43.75,0,0,0,124.58,111.86Z"/><path class="cls-1" d="M174.35,46.56c.79.12,1.78,1.47,3,4.07s1.57,15,1.12,37.09q9-12.18,19.4-11.63T211.77,84q3.57,7.34,2,17.33a33.09,33.09,0,0,1-7.53,17,87.67,87.67,0,0,1-13.4,12.63q-7.39,5.64-17.55-1.12t-11-13.42q-.81-6.64-.31-32.4t-2.54-27.11ZM178.81,93q-1.8,22.52,2.88,28.06t14.64.56q4.33-11.25,3.56-19.91t-5.2-11.52a10.93,10.93,0,0,0-9.23-1.53Q180.68,90,178.81,93Z"/><path class="cls-1" d="M259.9,125.08q-4.77-2.64-4.21-10.32a50.82,50.82,0,0,1-4.79,5.11,46.9,46.9,0,0,1-8,5.93,12.85,12.85,0,0,1-10.46,1.41c-3.76-1-6.29-2.95-7.61-5.79s-1.8-6.92-1.43-12.29q.5-13.06-.31-19.37c-.53-4.21-1.59-5.64-3.16-4.29l-1.17-1.28L231.67,71.1q4.89,2.69,5.33,7.05t.12,23q-.06,13,5.42,14.41t13.4-6.75q.68-17.24-.37-23.29t-4.71-3.82l-.61-1,13.12-13q5.2,2.52,6,6.54t.19,30.89q0,6.51,4.09,5.2l1.42,1.86Z"/><path class="cls-3" d="M401,120.15a28.29,28.29,0,0,1-5.73-.59l-.27-.06c-13.66-3.14-20.05-11.37-23-17.72-3.78-8.1-4.57-17.15-2.35-26.9a51.88,51.88,0,0,1,14.2-25.12c7.93-8,16.9-12.1,26.67-12.1l1.06,0c12.61.39,21.57,7.93,23.4,19.68a24.35,24.35,0,0,1-3.34,16.32l12.11,8.21-4.52,10c-2.7,6-7.7,12.08-15.27,18.65C416.55,116.91,408.83,120.15,401,120.15Z"/><path class="cls-1" d="M422.09,59.35q1.31,8.38-11.76,18.1L396.89,87.89q1.31,3.49,8.7,5.49t19.9-8.13l1.86,1.25q-2.85,6.3-12,14.19t-17.51,6.15q-10.35-2.39-14.15-10.56t-1.45-18.51A38.83,38.83,0,0,1,393.06,58.9q8.42-8.53,18.07-8.23T422.09,59.35ZM393,78.9A27,27,0,0,0,395,84.78Q408.09,76.19,409,70.53c.57-3.76-1-6.54-4.65-8.31s-6.63-1.43-8.88,1.06a11.36,11.36,0,0,0-3.22,8.22A43.52,43.52,0,0,0,393,78.9Z"/><path class="cls-1" d="M449.7,19.69q3,2.18,3.65,7.41L452.67,48l15.1-1.67.5,1.17-8.11,11-7.74.95q-.62,18.21.16,23.75t14.08-2.84l1.11,4.69q-11.88,11.18-20.36,16.61-6.14-3.51-7.28-8.67t0-32q-7.74.59-10.64,4.22l-1.92-1.5,8.91-13.29,4-.56q1.62-20.68-2-19.86Z"/><path class="cls-1" d="M374.18,93.56q-1.06-5.59-.44-18.67.43-8-1.3-12.63t-7.36-6.12a12.86,12.86,0,0,0-10.47,1.41,46.78,46.78,0,0,0-7.95,5.93,61.06,61.06,0,0,1-6,5.07L340.44,35q-.81-5.22-3.84-7.32L326,37.55a20.26,20.26,0,0,1,1.8,8.26q-.25,58.59.83,62.88a17.7,17.7,0,0,0,4.43,7.84l13.12-13.86v-1.49q-4.14,1.44-5.26-4-1-4.73-.58-18.4l-6.79,1.64,6.94-5.9h0q1.14-1,2.22-1.89h0q7.56-6,12.35-4.82,5.48,1.39,5.41,14.41-.3,18.6.13,23c.29,2.91,2.06,5.27,5.32,7l12.51-12.93.06-1.55C376.3,98.7,374.88,97.29,374.18,93.56Z"/><path class="cls-1" d="M321,98a39,39,0,0,1-4,4.8,10.49,10.49,0,0,1-6.41,3.08,14.07,14.07,0,0,1-8.51-2q-13.1-5.7-11.17-20.65l-6.37,1.54L293.69,77l0,0c1.62-1.35,3.89-1.84,6.85-1.43,4.42,1.12,7.47,4.16,9.16,9.16l12.14-11q-.19-5.36-4.06-8a17.14,17.14,0,0,0-7.64-3,12.43,12.43,0,0,0-7.24,1.41,45.18,45.18,0,0,0-6.5,4.15c-2,1.54-4.11,3.32-6.26,5.31Q268,93.45,282.44,112.28a23,23,0,0,0,8.29,6.2,20.51,20.51,0,0,0,10.06,1q5.85-.69,12-7.14A81.22,81.22,0,0,0,323,99.44Z"/><path class="cls-1" d="M102.36,87.59q-5.7,2.82-12.13,11.71Q90.79,91.62,86,89L70.85,101.92l1.42,1.87q4.59-3.35,4.09,5.2-.61,26.88.19,30.89t6,6.54l13.12-13v-1.49q-4.14,1.44-5.26-4-1-4.77-.57-18.62l-6.44,1.56L90,105.29v0q7.92-8.14,13.93-.29l11.2-11.71Q108.06,84.8,102.36,87.59Z"/></g></g></svg>