<svg xmlns="http://www.w3.org/2000/svg" viewBox="0 0 578.39 73.6"><defs><style>.cls-1{fill:#ef5d3f;}</style></defs><title>once_1</title><g id="Layer_2" data-name="Layer 2"><g id="Layer_1-2" data-name="Layer 1"><path class="cls-1" d="M54,4.88C51,13.2,48.32,15.6,43.68,15.6a23.65,23.65,0,0,1-5.2-.64V57.68C44,57.52,49.84,55.36,52.88,53l.8,1.28c-4.16,5.92-10.4,11-21.68,11C16.8,65.2,5.6,54.72,5.6,38.72c0-11.92,8-20.8,18.16-26.16-2-.16-4.08-.32-6.56-.32-5.52,0-11.2,2.64-15.68,15.44L0,27.12C2.8,9,9.2,4.24,19.36,4.24s16.8,3.6,28.32,3.6c1.36,0,2.56-.4,5.28-3.92ZM25.2,12.72H25C20.4,17.2,15.2,24.64,15.2,34.48c0,7,1.68,12.32,4.72,16.16l2.72-1.92c1.76-1.28,2.56-3,2.56-7.68Zm11.84,2c-.88-.16-2.08-.48-3.28-.72V42.88s-8.4,5.68-12.88,8.8c3.76,3.92,9.2,5.92,16.16,6Z"/><path class="cls-1" d="M81.76,22.8c-1,.64-1.12,1.84-1.12,3.68V56.4c0,7-2.24,12.72-12.88,17.2L66.48,73c4.16-3.36,5.92-6.72,5.92-14.16V25.52c-1.2-.8-2.4-1.44-4.32-2.64l-2.56,2v31.6a26.7,26.7,0,0,0,2.72,2v.16A76.11,76.11,0,0,0,62.4,64c-1.92-1.6-4.88-3.84-6.48-5v-.32c.8-.4,1.36-1.44,1.36-3.84V7c0-1.92-.16-3.2-.8-4.08l.32-.16a5.84,5.84,0,0,1,3.36,3.28h.16c1.2-2.64,2.8-5,6.24-6.08l.24.16a9.13,9.13,0,0,0-1.28,5.36v17.6c2.08-1.6,5.36-4.56,7.36-6.32,2.48,1.76,5.92,3.84,8.88,5.76Z"/><path class="cls-1" d="M96.16,40.32V52.56c4.88,3.12,6.88,3.92,8.32,3.92a2.49,2.49,0,0,0,1.68-.88l.72-.72,1.2,1.28c-1.84,1.76-5.68,5.6-7.68,7.84-3.44-2.16-9.76-5.76-13.84-7.76v-.32c1-.72,1.36-1.44,1.36-3.92V23.2a54.72,54.72,0,0,0,14.4-6.48c1.84,4,6,11.92,8.24,15.52C107.68,34.4,100.72,37.84,96.16,40.32ZM96.56,22l-.4.08V38.24a74.37,74.37,0,0,0,7.28-3.84C101.44,31.12,97.92,25,96.56,22Z"/><path class="cls-1" d="M178,4.88c-3,8.32-5.68,10.72-10.32,10.72a23.65,23.65,0,0,1-5.2-.64V57.68c5.52-.16,11.36-2.32,14.4-4.72l.8,1.28c-4.16,5.92-10.4,11-21.68,11-15.2,0-26.4-10.48-26.4-26.48,0-11.92,8-20.8,18.16-26.16-2-.16-4.08-.32-6.56-.32-5.52,0-11.2,2.64-15.68,15.44L124,27.12C126.8,9,133.2,4.24,143.36,4.24s16.8,3.6,28.32,3.6c1.36,0,2.56-.4,5.28-3.92Zm-28.8,7.84H149c-4.64,4.48-9.84,11.92-9.84,21.76,0,7,1.68,12.32,4.72,16.16l2.72-1.92c1.76-1.28,2.56-3,2.56-7.68Zm11.84,2c-.88-.16-2.08-.48-3.28-.72V42.88s-8.4,5.68-12.88,8.8c3.76,3.92,9.2,5.92,16.16,6Z"/><path class="cls-1" d="M198.16,32h-.32a39.52,39.52,0,0,1-5.92-8.8L190.24,25V54.08c3.84,2.4,4.56,2.72,5.76,2.72.56,0,1-.48,1.52-1l.72-.8,1.36,1.2c-4.72,4.72-7.76,7.84-7.76,7.84a91.48,91.48,0,0,0-11.2-6.24v-.32c.88-.8,1.36-1.52,1.36-4V24.8A7.25,7.25,0,0,0,178,23l-.16-.24a83.76,83.76,0,0,0,6.08-5.92c2.24,1.84,4.64,4,6.64,5.6,2.8-2.4,3.68-3.36,6-5.6a66.54,66.54,0,0,0,6.72,8.88A60.55,60.55,0,0,0,198.16,32Z"/><path class="cls-1" d="M214.48,40.32V52.56c4.88,3.12,6.88,3.92,8.32,3.92a2.49,2.49,0,0,0,1.68-.88l.72-.72,1.2,1.28c-1.84,1.76-5.68,5.6-7.68,7.84-3.44-2.16-9.76-5.76-13.84-7.76v-.32c1-.72,1.36-1.44,1.36-3.92V23.2a54.72,54.72,0,0,0,14.4-6.48c1.84,4,6,11.92,8.24,15.52C226,34.4,219,37.84,214.48,40.32Zm.4-18.32-.4.08V38.24a74.37,74.37,0,0,0,7.28-3.84C219.76,31.12,216.24,25,214.88,22Z"/><path class="cls-1" d="M257.36,23.92c-1,.64-1.36,1.68-1.36,4.08V55.12A147.54,147.54,0,0,0,242.24,64c-3-2.08-8.4-5.44-11-6.88v-.4a3.13,3.13,0,0,0,1.36-2.88V7c0-1.92-.16-3.2-.8-4.08l.32-.16a5.81,5.81,0,0,1,3.36,3.28h.16A10.22,10.22,0,0,1,241.92,0l.24.16a9.18,9.18,0,0,0-1.28,5.36V22c2.48-2.08,3.84-3.6,5.68-5.2,3,2,8.24,5.28,10.8,6.8Zm-9.6,34.4V26.56c-1.52-1.12-3.84-2.48-5.84-3.68l-1,.88v30.4c1.44,1,4.88,3.2,6.72,4.32Z"/><path class="cls-1" d="M291.84,58.08c-2.32,2.16-4.08,3.84-6.08,6-2.56-2-5-3.76-7.28-5.36h-.08l-6.32,5.36c-2.64-1.84-6.25-4.32-9.12-6.08v-.32a3.51,3.51,0,0,0,1.35-3.2V24.8c-1.27-1-3.12-1.92-4.08-1.84l-.16-.16c1.6-1.52,4.33-4,6.24-6,2.4,1.84,5.52,4.08,7.61,5.44v.32c-1,.48-1.36,1.44-1.36,3.84V55.2a39.24,39.24,0,0,0,3.76,3s2.64-2.32,3.12-2.72V24.4c-1-.8-1.68-1.2-2.72-2v-.08c1.52-1.36,4.24-3.84,5.92-5.52,1.6,1.36,4.48,3.68,6.4,5v.32c-1,.56-1.36,1.44-1.36,4.08V56.08a7.88,7.88,0,0,0,4,1.84Z"/><path class="cls-1" d="M318.48,22.48c-1.44,1.36-4.56,4.8-5.84,6.08h-.08a32.82,32.82,0,0,1-8.08-6.32l-.32.16V52.56c4.88,3.2,7.52,3.84,9.12,3.84a2.28,2.28,0,0,0,1.6-.64l.72-.8,1.28,1.2c-2.16,2.08-5.2,5.2-7.76,7.84-2.88-1.84-10.88-6-14.56-7.76v-.32c.72-.48,1.36-1.12,1.36-3.28v-27a109.54,109.54,0,0,0,13.76-8.88c6.16,5.68,7.84,5.68,8.64,5.44Z"/><path class="cls-1" d="M346.08,22.8c-1,.64-1.12,1.84-1.12,3.68V56.4c0,7-2.24,12.72-12.88,17.2L330.8,73c4.16-3.36,5.92-6.72,5.92-14.16V25.52c-1.2-.8-2.4-1.44-4.32-2.64l-2.56,2v31.6a26.7,26.7,0,0,0,2.72,2v.16A76.11,76.11,0,0,0,326.72,64c-1.93-1.6-4.89-3.84-6.49-5v-.32c.81-.4,1.37-1.44,1.37-3.84V7c0-1.92-.16-3.2-.81-4.08l.33-.16a5.86,5.86,0,0,1,3.36,3.28h.16c1.19-2.64,2.8-5,6.24-6.08l.24.16a9.13,9.13,0,0,0-1.28,5.36v17.6c2.08-1.6,5.36-4.56,7.36-6.32,2.48,1.76,5.92,3.84,8.88,5.76Z"/><path class="cls-1" d="M360.48,40.32V52.56c4.87,3.12,6.87,3.92,8.31,3.92a2.51,2.51,0,0,0,1.69-.88l.72-.72,1.2,1.28c-1.84,1.76-5.69,5.6-7.69,7.84-3.44-2.16-9.76-5.76-13.84-7.76v-.32c1-.72,1.36-1.44,1.36-3.92V23.2a54.63,54.63,0,0,0,14.41-6.48c1.84,4,6,11.92,8.24,15.52C372,34.4,365,37.84,360.48,40.32Zm.4-18.32-.4.08V38.24a73,73,0,0,0,7.27-3.84C365.75,31.12,362.23,25,360.88,22Z"/><path class="cls-1" d="M396,56.16,388.23,64c-3.12-2-7.76-4.72-10.72-6.16v-.32c1-.64,1.36-1.92,1.36-3.84V26.08h-3.36V25.6c4.32-2.8,8.72-10.32,11-16.24H387V21.44h8.24l-2.08,4.64H387V54.24c3.84,2.48,4.16,2.32,5.44,2.32a2.4,2.4,0,0,0,1.68-.8l.64-.72Z"/><path class="cls-1" d="M463.43,4.88c-3,8.32-5.68,10.72-10.32,10.72a23.65,23.65,0,0,1-5.2-.64V57.68c5.52-.16,11.36-2.32,14.4-4.72l.8,1.28c-4.16,5.92-10.4,11-21.68,11-15.2,0-26.4-10.48-26.4-26.48,0-11.92,8-20.8,18.16-26.16-2-.16-4.08-.32-6.56-.32-5.52,0-11.2,2.64-15.68,15.44l-1.52-.56c2.8-18.16,9.2-22.88,19.36-22.88s16.8,3.6,28.32,3.6c1.36,0,2.56-.4,5.28-3.92Zm-28.8,7.84h-.16c-4.64,4.48-9.84,11.92-9.84,21.76,0,7,1.68,12.32,4.72,16.16l2.72-1.92c1.76-1.28,2.56-3,2.56-7.68Zm11.84,2c-.88-.16-2.08-.48-3.28-.72V42.88s-8.4,5.68-12.88,8.8c3.76,3.92,9.2,5.92,16.16,6Z"/><path class="cls-1" d="M483.59,32h-.32a39.52,39.52,0,0,1-5.92-8.8L475.67,25V54.08c3.84,2.4,4.56,2.72,5.76,2.72.56,0,1-.48,1.52-1l.72-.8,1.36,1.2c-4.72,4.72-7.76,7.84-7.76,7.84a91.48,91.48,0,0,0-11.2-6.24v-.32c.88-.8,1.36-1.52,1.36-4V24.8a7.25,7.25,0,0,0-4-1.84l-.16-.24a83.76,83.76,0,0,0,6.08-5.92c2.24,1.84,4.64,4,6.64,5.6,2.8-2.4,3.68-3.36,6-5.6a66.54,66.54,0,0,0,6.72,8.88A60.55,60.55,0,0,0,483.59,32Z"/><path class="cls-1" d="M506.15,58.08,499.91,64c-1.76-1.36-5.36-3.92-7.6-5.36v-.32c1-.64,1.36-1.52,1.36-3.76V24.8l-1-.64a4.77,4.77,0,0,0-3.12-1l-.08-.32,6.24-6c1.76,1.36,5.2,3.84,7.6,5.44v.32c-1,.56-1.36,1.36-1.36,3.52v30c2.48,1.6,3.36,1.76,4.08,1.76ZM496.07,12.8,493.51,10a121.21,121.21,0,0,0,9-10,39.38,39.38,0,0,1,3,6.08C503.51,7.68,498.63,11.2,496.07,12.8Z"/><path class="cls-1" d="M535.59,58.08c-1.84,1.76-4.48,4.32-6.08,5.92-2.56-2-5.84-4.32-7.44-5.44L515.75,64c-2.24-1.84-5.84-4.48-8.64-6.32v-.32c.88-.56,1.36-1.28,1.36-4v-9a67.43,67.43,0,0,0,7.12-3.84,9,9,0,0,1-6-8.56c0-5.6,2.72-8.16,5.2-11.12a46,46,0,0,0,3-4c3.84,1.68,10.56,4.8,15,6.4v.32c-1,.72-1.36,1.76-1.36,3.76V56c.72.72,3.2,2.16,4.08,1.84ZM523.11,27.6c-3.44-2.08-5-3-6.56-3-1.44,0-5,1-5,7.36,0,4.24,3.76,7.68,9,7.68a9.21,9.21,0,0,0,2.64-.56Zm0,27.92V40.88a7.86,7.86,0,0,1-2.72.56,13,13,0,0,1-3.6-.64,7.49,7.49,0,0,0-.56,3.36V55.44c1.36.88,2.4,1.76,3.92,2.64Z"/><path class="cls-1" d="M552.15,58c-1.6,1.52-4.24,4.16-6.16,6-2.32-1.76-5.6-4-7.68-5.36v-.32c1-.4,1.36-1.44,1.36-3.84V7c0-1.92-.16-3.2-.8-4.08l.32-.16a5.81,5.81,0,0,1,3.36,3.28h.16A10.21,10.21,0,0,1,549,0l.24.16a9.79,9.79,0,0,0-1.28,5.36V56c1.28,1,3.12,1.92,4.08,1.84Z"/><path class="cls-1" d="M578.39,40.08a3.28,3.28,0,0,0-1.36,3V57a63.81,63.81,0,0,0-13.12,7,24.47,24.47,0,0,0-8.08-3.92,8.42,8.42,0,0,0-.32,2.48v1.2c-.72-.24-2.08-.64-2.08-.64.24-9.52,6.16-17,9.2-20.64-2.32-1.28-7-4.16-8.48-4.8v-.32c.88-.48,1.36-1.28,1.36-2.88V22.88a41.39,41.39,0,0,0,12-6.08,79,79,0,0,0,8.16,5.92,22,22,0,0,0,.72-3.6,16.76,16.76,0,0,1,1.76,1.2c-.48,3.36-2.4,8.16-7.76,15l8,4.4Zm-9.52,18.24V42.48l-2.48-1.28c-2.4,2.64-7.28,9.2-8.8,12.72a21.55,21.55,0,0,1,11.12,4.48Zm-4.8-36.24-.32.16V35c.72.4,2.16,1.2,3,1.52a38.11,38.11,0,0,0,5.76-8.08A36.33,36.33,0,0,1,564.07,22.08Z"/></g></g></svg>